# xmcd
#
# Track frame offsets: 
#        150
#        25155
#        51637
#        69106
#        90294
#        105032
#        127254
#        148809
#        168383
#        186522
#        208321
#        232737
#        256052
#
# Disc length: 3690 seconds
#
# Revision: 4
# Processed by: cddbd v1.5.2PL0 Copyright (c) Steve Scherf et al.
# Submitted via: ExactAudioCopy v0.95b4
#
DISCID=b10e680d
DTITLE=Vargas Blues Band - Love, Union, Peace
DYEAR=2005
DGENRE=Blues
TTITLE0=Tiny Paradise (feat. Alex Ligertwood)
TTITLE1=Sunny Day
TTITLE2=Pretty Blue (feat. Jack Bruce and Reeese Wynans)
TTITLE3=Sad Eyes (feat. Glenn Hughes and Reeese Wynans)
TTITLE4=Deep Blue (feat. Elliott Murphy and Reeese Wynans)
TTITLE5=Dance Away The Blues (feat. Devon Allman and Reeese Wynans)
TTITLE6=Exotic Mambo (feat. Alex Ligertwood and Reeese Wynans)
TTITLE7=How Verso Are You? (feat. Devon Allman and Reeese Wynans)
TTITLE8=Agua Clara (feat. Juan Gomez "Chicuelo")
TTITLE9=Celos (feat. Jaime Urrutia)
TTITLE10=God Give Me Strength
TTITLE11=Mother's Day
TTITLE12=Magic Of The Gods (feat. Devon Allman)
EXTD=
EXTT0=
EXTT1=
EXTT2=
EXTT3=
EXTT4=
EXTT5=
EXTT6=
EXTT7=
EXTT8=
EXTT9=
EXTT10=
EXTT11=
EXTT12=
PLAYORDER=
